<?xml version="1.0" encoding="utf-8"?>
<!-- Generator: Adobe Illustrator 23.0.2, SVG Export Plug-In . SVG Version: 6.00 Build 0)  -->
<svg version="1.1" id="Layer_1" xmlns="http://www.w3.org/2000/svg" xmlns:xlink="http://www.w3.org/1999/xlink" x="0px" y="0px"
	 viewBox="0 0 56.7 68" style="enable-background:new 0 0 56.7 68;" xml:space="preserve">
<style type="text/css">
	.st0{fill:#474747;}
	.st1{font-family:'SourceSansPro-SemiBold';}
	.st2{font-size:13.983px;}
	.st3{fill:#2A6AB0;}
</style>
<text transform="matrix(1 0 0 1 13.6894 63.654)" class="st0 st1 st2">A150</text>
<path class="st3" d="M41.3,8c-0.2,0.2-0.3,0.4-0.5,0.6c-2.1,1.5-4.3,3.1-6.4,4.6c-2.7,1.9-5.4,3.8-8,5.7c-0.4,0.2-0.7,0.5-1.1,0.8
	c0,0.1,0.1,0.1,0.1,0.2c0.4-0.2,0.8-0.5,1.2-0.7c2.1-1.2,4.2-2.3,6.2-3.5c3.3-1.9,6.6-3.7,9.9-5.6c0.4-0.2,0.7-0.4,1.1-0.6
	c0.2-0.1,0.4-0.2,0.5,0c0,0.1-0.1,0.3-0.2,0.4c-1.3,1-2.7,1.9-4.1,2.9c-2.5,1.8-5,3.5-7.5,5.3c-1.3,0.9-2.7,1.9-4,2.8
	c-0.3,0.2-0.6,0.5-0.9,0.8c0.8-0.5,1.7-1,2.5-1.5c1.6-0.9,3.2-1.7,4.8-2.6c3.6-2,7.2-4,10.8-6c0.1-0.1,0.2-0.1,0.4-0.1
	c0.1,0,0.2,0,0.2,0.1c0,0.1,0,0.2,0,0.3c-0.2,0.2-0.4,0.3-0.6,0.5c-4.5,3.2-9.1,6.4-13.6,9.7c-0.7,0.5-1.4,1-2,1.5
	c1.6-0.9,3.1-1.7,4.7-2.6c2.9-1.6,5.8-3.2,8.7-4.8c1.3-0.7,2.6-1.5,4-2.2c0.2-0.1,0.4-0.3,0.5,0c0.1,0.3,0,0.4-0.2,0.6
	c-1.5,1.1-3,2.2-4.6,3.2c-3.2,2.3-6.4,4.6-9.6,6.8c-0.2,0.1-0.3,0.3-0.4,0.5c0.2-0.1,0.4-0.1,0.5-0.2c4-2.1,8.1-4.2,12.1-6.3
	c1-0.5,2.1-1.1,3.1-1.6c0.5-0.2,0.5-0.2,0.7,0.3c0.7,1.7,1.1,3.5,1.4,5.3c0.4,2.5,0.2,5.1-0.2,7.6c-0.4,1.9-1,3.8-1.9,5.5
	c0,0.1-0.1,0.2-0.2,0.3c-9.1-5.5-18.2-11.1-27.3-16.6c0,0-0.1,0-0.1,0.1c0,0.4,0,0.8,0,1.1c0,1.4,0,1.4,1.2,2
	c5.1,2.7,10.3,5.4,15.4,8c3.4,1.8,6.8,3.6,10.2,5.4c0.2,0.1,0.3,0.2,0.6,0.4c-0.4,0.6-0.7,1.2-1.1,1.8c-0.2,0.3-0.4,0.2-0.7,0
	c-1.3-0.8-2.6-1.6-3.9-2.3c-3.6-2.2-7.2-4.4-10.9-6.6c-3.3-2-6.7-4.1-10-6.1c-0.2-0.1-0.5-0.2-0.8-0.4c0,0.9,0,1.6,0,2.4
	c0,0.1,0.3,0.3,0.4,0.4c1.7,0.9,3.4,1.8,5.1,2.7c3.3,1.7,6.7,3.4,10,5.2c3.2,1.7,6.4,3.3,9.6,5c0.1,0.1,0.2,0.1,0.3,0.2
	c0.3,0.1,0.4,0.3,0.1,0.6c-0.3,0.4-0.6,0.8-0.9,1.1c-0.2,0.3-0.4,0.3-0.7,0.1c-1.5-0.9-3-1.8-4.5-2.7c-2.1-1.3-4.3-2.6-6.4-3.9
	c-3-1.8-6-3.6-9-5.4c-1.2-0.7-2.4-1.5-3.6-2.2c-0.1-0.1-0.3-0.1-0.5-0.3c0,0.3-0.1,0.6-0.1,0.8c0,2.2-0.3,1.5,1.5,2.5
	c1.1,0.6,2.3,1.2,3.5,1.8c1.8,0.9,3.6,1.8,5.3,2.7c2.1,1.1,4.2,2.1,6.3,3.2c2.3,1.2,4.6,2.4,7,3.6c0.2,0.1,0.3,0.2,0.6,0.4
	c-0.5,0.7-1,1.2-1.6,1.6c-0.1,0.1-0.3,0-0.5-0.1c-2.6-1.6-5.2-3.1-7.8-4.7c-3.2-1.9-6.4-3.8-9.7-5.8c-1.3-0.8-2.5-1.5-3.8-2.3
	c-0.2-0.1-0.5-0.3-0.9-0.5c0,0.6,0,1,0,1.4c0,1.4-0.1,1.1,1,1.6c4.8,2.4,9.5,4.7,14.3,7.1c2.1,1,4.2,2.1,6.3,3.1
	c0.2,0.1,0.3,0.2,0.6,0.4c-0.6,0.6-1.2,1.1-1.8,1.5c-0.1,0.1-0.4,0-0.6-0.1c-1.9-1.1-3.7-2.2-5.6-3.4c-3.4-2-6.8-4.1-10.2-6.1
	c-1-0.6-2-1.2-3-1.8c-0.3-0.2-0.5-0.3-0.9-0.5c-0.1,0.8-0.2,1.6,0,2.4c0,0.2,0.4,0.4,0.6,0.5c1.5,0.8,3.1,1.5,4.6,2.3
	c4.5,2.2,9,4.4,13.6,6.6c0.2,0.1,0.5,0.3,0.8,0.5c-0.2,0.2-0.3,0.3-0.5,0.4c-2,1.2-4.1,2.1-6.3,2.6c-2.8,0.7-5.7,0.8-8.6,0.4
	c-2.6-0.3-5.1-1.2-7.5-2.4C14.6,44,12,41.8,10,39c-1.6-2.2-2.8-4.7-3.6-7.3c-0.8-2.7-1-5.4-0.8-8.1c0.2-2.3,0.8-4.6,1.7-6.8
	c1.1-2.7,2.7-5,4.7-7.1c2.5-2.5,5.3-4.4,8.7-5.6c3.6-1.3,7.3-1.6,11.1-1.1c2.6,0.4,5.1,1.2,7.4,2.5c0.1,0.1,0.2,0.2,0.4,0.3
	C33.8,9.9,28.1,13.9,22.4,18c0,0,0.1,0.1,0.1,0.1c3.1-1.7,6.2-3.5,9.4-5.2c3.1-1.7,6.2-3.5,9.3-5.2C41.2,7.8,41.3,7.9,41.3,8z"/>
</svg>
